<?xml version="1.0" encoding="UTF-8" standalone="no"?>
<!-- Created with Inkscape (http://www.inkscape.org/) -->

<svg
   width="100"
   height="100"
   viewBox="0 0 26.458333 26.458333"
   version="1.1"
   id="svg1"
   inkscape:version="1.3.2 (091e20e, 2023-11-25, custom)"
   sodipodi:docname="eye.svg"
   xmlns:inkscape="http://www.inkscape.org/namespaces/inkscape"
   xmlns:sodipodi="http://sodipodi.sourceforge.net/DTD/sodipodi-0.dtd"
   xmlns="http://www.w3.org/2000/svg"
   xmlns:svg="http://www.w3.org/2000/svg">
  <sodipodi:namedview
     id="namedview1"
     pagecolor="#ffffff"
     bordercolor="#000000"
     borderopacity="0.25"
     inkscape:showpageshadow="2"
     inkscape:pageopacity="0.0"
     inkscape:pagecheckerboard="true"
     inkscape:deskcolor="#d1d1d1"
     inkscape:document-units="mm"
     showgrid="true"
     inkscape:zoom="5.7941077"
     inkscape:cx="60.923962"
     inkscape:cy="53.50263"
     inkscape:window-width="1476"
     inkscape:window-height="1000"
     inkscape:window-x="2155"
     inkscape:window-y="545"
     inkscape:window-maximized="0"
     inkscape:current-layer="layer1">
    <inkscape:grid
       id="grid1"
       units="mm"
       originx="0"
       originy="0"
       spacingx="0.99999999"
       spacingy="0.99999999"
       empcolor="#0099e5"
       empopacity="0.30196078"
       color="#0099e5"
       opacity="0.14901961"
       empspacing="5"
       dotted="false"
       gridanglex="30"
       gridanglez="30"
       visible="true" />
  </sodipodi:namedview>
  <defs
     id="defs1" />
  <g
     inkscape:label="Layer 1"
     inkscape:groupmode="layer"
     id="layer1">
    <path
       id="path1"
       style="fill:#d4d4d4;stroke-width:0.398011"
       d="m 13.528707,10.231 c -2.150662,0 -5.770707,3.137276 -5.770707,3.137276 0,0 3.620045,3.13676 5.770707,3.13676 2.15066,0 5.770707,-3.13676 5.770707,-3.13676 0,0 -3.620047,-3.137276 -5.770707,-3.137276 z m 0,1.172021 a 1.8218112,1.8684415 0 0 1 1.821594,1.86862 1.8218112,1.8684415 0 0 1 -1.821594,1.868103 1.8218112,1.8684415 0 0 1 -1.821595,-1.868103 1.8218112,1.8684415 0 0 1 1.821595,-1.86862 z" />
    <ellipse
       style="fill:#d4d4d4;stroke-width:0.264583"
       id="path2"
       cx="13.528708"
       cy="13.368019"
       rx="0.81307811"
       ry="0.89729023" />
  </g>
</svg>
