<?xml version="1.0" encoding="UTF-8" standalone="no"?>
<!-- Created with Inkscape (http://www.inkscape.org/) -->

<svg
   width="100"
   height="100"
   viewBox="0 0 26.458333 26.458333"
   version="1.1"
   id="svg1"
   inkscape:version="1.3.2 (091e20e, 2023-11-25, custom)"
   sodipodi:docname="profile_light.svg"
   xmlns:inkscape="http://www.inkscape.org/namespaces/inkscape"
   xmlns:sodipodi="http://sodipodi.sourceforge.net/DTD/sodipodi-0.dtd"
   xmlns="http://www.w3.org/2000/svg"
   xmlns:svg="http://www.w3.org/2000/svg">
  <sodipodi:namedview
     id="namedview1"
     pagecolor="#ffffff"
     bordercolor="#000000"
     borderopacity="0.25"
     inkscape:showpageshadow="2"
     inkscape:pageopacity="0.0"
     inkscape:pagecheckerboard="true"
     inkscape:deskcolor="#d1d1d1"
     inkscape:document-units="mm"
     showgrid="true"
     inkscape:zoom="16.388211"
     inkscape:cx="52.781844"
     inkscape:cy="35.757411"
     inkscape:window-width="1278"
     inkscape:window-height="1000"
     inkscape:window-x="1073"
     inkscape:window-y="545"
     inkscape:window-maximized="0"
     inkscape:current-layer="layer1">
    <inkscape:grid
       id="grid1"
       units="mm"
       originx="0"
       originy="0"
       spacingx="0.99999999"
       spacingy="0.99999999"
       empcolor="#0099e5"
       empopacity="0.30196078"
       color="#0099e5"
       opacity="0.14901961"
       empspacing="5"
       dotted="false"
       gridanglex="30"
       gridanglez="30"
       visible="true" />
  </sodipodi:namedview>
  <defs
     id="defs1">
    <inkscape:path-effect
       effect="fillet_chamfer"
       id="path-effect1"
       is_visible="true"
       lpeversion="1"
       nodesatellites_param="F,0,0,1,0,0,0,1 @ F,0,0,1,0,0,0,1 @ F,0,0,1,0,4.4999998,0,1 @ F,0,0,1,0,4.5000002,0,1"
       radius="0"
       unit="px"
       method="auto"
       mode="F"
       chamfer_steps="1"
       flexible="false"
       use_knot_distance="true"
       apply_no_radius="true"
       apply_with_radius="true"
       only_selected="false"
       hide_knots="false" />
  </defs>
  <g
     inkscape:label="Layer 1"
     inkscape:groupmode="layer"
     id="layer1">
    <rect
       style="fill:#d4d4d4;stroke-width:0.188595"
       id="rect1"
       width="9.9792261"
       height="0.71280187"
       x="8.3792582"
       y="10.446378"
       ry="0.35640094" />
    <rect
       style="fill:#d4d4d4;stroke-width:0.188595"
       id="rect1-5"
       width="9.9792261"
       height="0.71280187"
       x="8.3792582"
       y="18.287199"
       ry="0.35640094" />
    <rect
       style="fill:#d4d4d4;stroke-width:0.209733"
       id="rect2"
       width="0.71696568"
       height="8.5536222"
       x="8.3792582"
       y="10.446378"
       ry="0.43017939" />
    <rect
       style="fill:#d4d4d4;stroke-width:0.209732"
       id="rect2-9"
       width="0.71696568"
       height="8.5536222"
       x="17.641518"
       y="10.446378"
       ry="0.43017939" />
    <path
       id="path2"
       style="fill:#d4d4d4;stroke-width:0.188595"
       d="m 13.369041,6.590418 a 3.9183287,3.8558732 0 0 0 -3.9185125,3.855894 3.9183287,3.8558732 0 0 0 0.076249,0.712758 h 0.6331945 a 3.2926293,3.3604098 0 0 1 -0.08362,-0.712758 3.2926293,3.3604098 0 0 1 3.292685,-3.3604625 3.2926293,3.3604098 0 0 1 3.292318,3.3604625 3.2926293,3.3604098 0 0 1 -0.08362,0.712758 h 0.633195 a 3.9183287,3.8558732 0 0 0 0.07625,-0.712758 3.9183287,3.8558732 0 0 0 -3.918146,-3.855894 z" />
    <path
       id="path2-6"
       style="fill:#d4d4d4;stroke-width:0.129148"
       d="M 14.000179 7.873938 L 14.000179 8.2237874 A 2.3003635 2.2555727 0 0 1 15.482776 9.5094971 L 15.938562 9.5094971 A 2.7375023 2.5881375 0 0 0 14.000179 7.873938 z " />
    <circle
       style="fill:#d4d4d4;fill-opacity:1;stroke-width:0.188595"
       id="path3"
       cx="13.36887"
       cy="10.446378"
       r="0.71280187" />
    <rect
       style="fill:#d4d4d4;fill-opacity:1;stroke-width:0.211577"
       id="rect3"
       width="4.2768111"
       height="0.59517068"
       x="11.230465"
       y="12.702415"
       ry="0.29758534" />
  </g>
</svg>
