<?xml version="1.0" encoding="UTF-8" standalone="no"?>
<!-- Created with Inkscape (http://www.inkscape.org/) -->

<svg
   width="100"
   height="100"
   viewBox="0 0 26.458333 26.458333"
   version="1.1"
   id="svg1"
   inkscape:version="1.3.2 (091e20e, 2023-11-25, custom)"
   sodipodi:docname="search_light.svg"
   xmlns:inkscape="http://www.inkscape.org/namespaces/inkscape"
   xmlns:sodipodi="http://sodipodi.sourceforge.net/DTD/sodipodi-0.dtd"
   xmlns="http://www.w3.org/2000/svg"
   xmlns:svg="http://www.w3.org/2000/svg">
  <sodipodi:namedview
     id="namedview1"
     pagecolor="#ffffff"
     bordercolor="#000000"
     borderopacity="0.25"
     inkscape:showpageshadow="2"
     inkscape:pageopacity="0.0"
     inkscape:pagecheckerboard="0"
     inkscape:deskcolor="#d1d1d1"
     inkscape:document-units="mm"
     showgrid="true"
     inkscape:zoom="2.0485265"
     inkscape:cx="119.84224"
     inkscape:cy="41.981396"
     inkscape:window-width="1350"
     inkscape:window-height="1080"
     inkscape:window-x="1184"
     inkscape:window-y="545"
     inkscape:window-maximized="1"
     inkscape:current-layer="layer1">
    <inkscape:grid
       id="grid1"
       units="mm"
       originx="0"
       originy="0"
       spacingx="0.99999999"
       spacingy="0.99999999"
       empcolor="#0099e5"
       empopacity="0.30196078"
       color="#0099e5"
       opacity="0.14901961"
       empspacing="5"
       dotted="false"
       gridanglex="30"
       gridanglez="30"
       visible="true" />
  </sodipodi:namedview>
  <defs
     id="defs1">
    <inkscape:path-effect
       effect="fillet_chamfer"
       id="path-effect2"
       is_visible="true"
       lpeversion="1"
       nodesatellites_param="F,0,0,1,0,0,0,1 @ F,0,0,1,0,0.97171698,0,1 @ F,0,0,1,0,1.3616708,0,1 @ F,0,0,1,0,0,0,1"
       radius="0"
       unit="px"
       method="auto"
       mode="F"
       chamfer_steps="1"
       flexible="false"
       use_knot_distance="true"
       apply_no_radius="true"
       apply_with_radius="true"
       only_selected="false"
       hide_knots="false" />
  </defs>
  <g
     inkscape:label="Layer 1"
     inkscape:groupmode="layer"
     id="layer1">
    <path
       id="path1"
       style="fill:#414141;fill-opacity:1;stroke-width:0.449086"
       d="M 10.129097 3.6462891 A 5.5 5.5 0 0 0 4.6291748 9.1462118 A 5.5 5.5 0 0 0 10.129097 14.646134 A 5.5 5.5 0 0 0 15.62902 9.1462118 A 5.5 5.5 0 0 0 10.129097 3.6462891 z M 10.129097 4.4607096 A 4.6853666 4.6853666 0 0 1 14.8146 9.1462118 A 4.6853666 4.6853666 0 0 1 10.129097 13.831714 A 4.6853666 4.6853666 0 0 1 5.4441121 9.1462118 A 4.6853666 4.6853666 0 0 1 10.129097 4.4607096 z " />
    <path
       id="path1-5"
       style="fill:#414141;fill-opacity:1;stroke-width:0.401372"
       d="M 10.129097,4.1855791 A 4.8709713,4.9607022 0 0 0 5.2581948,9.1462115 4.8709713,4.9607022 0 0 0 10.129097,14.106844 4.8709713,4.9607022 0 0 0 15,9.1462115 4.8709713,4.9607022 0 0 0 10.129097,4.1855791 Z m 0,0.7345632 A 4.1495066,4.2259469 0 0 1 14.278725,9.1462115 4.1495066,4.2259469 0 0 1 10.129097,13.372282 4.1495066,4.2259469 0 0 1 5.9799287,9.1462115 4.1495066,4.2259469 0 0 1 10.129097,4.9201423 Z" />
    <path
       style="fill:#414141;fill-opacity:1;stroke-width:0.41495"
       d="m 12.575266,13.784598 6.236742,7.676616 a 0.9743764,0.9743764 5.9867275 0 0 1.368586,0.143524 1.1282982,1.1282982 82.613819 0 0 -0.205411,-1.584575 l -5.990852,-7.373958 z"
       id="path2"
       inkscape:path-effect="#path-effect2"
       inkscape:original-d="m 12.575266,13.784598 6.849469,8.430804 1.409065,-1.138393 -6.849469,-8.430804 z" />
    <ellipse
       style="fill:#414141;stroke-width:0.293819"
       id="path3"
       cx="10.129097"
       cy="9.1462116"
       rx="3.5645485"
       ry="3.7488532" />
  </g>
</svg>
