<?xml version="1.0" encoding="UTF-8" standalone="no"?>
<!-- Created with Inkscape (http://www.inkscape.org/) -->

<svg
   width="100"
   height="100"
   viewBox="0 0 26.458333 26.458333"
   version="1.1"
   id="svg1"
   inkscape:version="1.3.2 (091e20e, 2023-11-25, custom)"
   sodipodi:docname="vinyl_record.svg"
   xmlns:inkscape="http://www.inkscape.org/namespaces/inkscape"
   xmlns:sodipodi="http://sodipodi.sourceforge.net/DTD/sodipodi-0.dtd"
   xmlns="http://www.w3.org/2000/svg"
   xmlns:svg="http://www.w3.org/2000/svg">
  <sodipodi:namedview
     id="namedview1"
     pagecolor="#ffffff"
     bordercolor="#000000"
     borderopacity="0.25"
     inkscape:showpageshadow="2"
     inkscape:pageopacity="0.0"
     inkscape:pagecheckerboard="true"
     inkscape:deskcolor="#d1d1d1"
     inkscape:document-units="mm"
     showgrid="true"
     inkscape:zoom="5.7941078"
     inkscape:cx="29.253857"
     inkscape:cy="57.903652"
     inkscape:window-width="1920"
     inkscape:window-height="1009"
     inkscape:window-x="-8"
     inkscape:window-y="-8"
     inkscape:window-maximized="1"
     inkscape:current-layer="layer1">
    <inkscape:grid
       id="grid1"
       units="mm"
       originx="0"
       originy="0"
       spacingx="0.99999999"
       spacingy="0.99999999"
       empcolor="#0099e5"
       empopacity="0.30196078"
       color="#0099e5"
       opacity="0.14901961"
       empspacing="5"
       dotted="false"
       gridanglex="30"
       gridanglez="30"
       visible="true" />
  </sodipodi:namedview>
  <defs
     id="defs1" />
  <g
     inkscape:label="Layer 1"
     inkscape:groupmode="layer"
     id="layer1">
    <path
       id="path2"
       style="fill:#d4d4d4;stroke-width:0.447523"
       d="m 13.268926,3.941476 a 9.2979232,9.1497206 0 0 0 -9.2983608,9.14977 9.2979232,9.1497206 0 0 0 0.180936,1.691325 h 1.5025281 a 7.8131817,7.9740202 0 0 1 -0.198424,-1.691325 7.8131817,7.9740202 0 0 1 7.8133107,-7.9741453 7.8131817,7.9740202 0 0 1 7.812443,7.9741453 7.8131817,7.9740202 0 0 1 -0.198424,1.691325 h 1.502528 a 9.2979232,9.1497206 0 0 0 0.180936,-1.691325 9.2979232,9.1497206 0 0 0 -9.29749,-9.14977 z" />
    <path
       id="path2-5"
       style="fill:#d4d4d4;stroke-width:0.447523"
       d="m 13.309928,22.173053 a 9.1497206,9.2979232 89.950108 0 0 9.290389,-9.157864 9.1497206,9.2979232 89.950108 0 0 -0.182407,-1.691168 l -1.502525,0.0013 a 7.9740202,7.8131817 89.950108 0 1 0.199895,1.691153 7.9740202,7.8131817 89.950108 0 1 -7.806366,7.980947 7.9740202,7.8131817 89.950108 0 1 -7.8193837,-7.967341 7.9740202,7.8131817 89.950108 0 1 0.196954,-1.691498 l -1.5025283,0.0013 a 9.1497206,9.2979232 89.950108 0 0 -0.1794624,1.691483 9.1497206,9.2979232 89.950108 0 0 9.3054524,9.141671 z" />
    <path
       id="path2-6"
       style="fill:#d4d4d4;stroke-width:0.306459"
       d="M 14.766572,6.9871802 V 7.817349 a 5.4586036,5.3523181 0 0 1 3.518101,3.0509 h 1.081548 A 6.4959037,6.1414714 0 0 0 14.766572,6.9871802 Z" />
    <path
       id="path2-6-5"
       style="fill:#d4d4d4;stroke-width:0.189142"
       d="m 14.112033,9.328471 v 0.512367 a 3.3689646,3.303367 0 0 1 2.171317,1.882967 h 0.667515 A 4.0091702,3.7904201 0 0 0 14.112033,9.328471 Z" />
    <path
       id="path2-6-3"
       style="fill:#d4d4d4;stroke-width:0.306459"
       d="m 11.762904,19.119543 0.0061,-0.830146 a 5.4586036,5.3523181 0.42280924 0 1 -3.4954827,-3.07678 l -1.0815193,-0.008 a 6.4959037,6.1414714 0.42280924 0 0 4.570883,3.914907 z" />
    <path
       id="path2-6-5-0"
       style="fill:#d4d4d4;stroke-width:0.189142"
       d="m 12.434704,16.783144 0.0038,-0.512352 a 3.3689646,3.303367 0.42280924 0 1 -2.157383,-1.898938 l -0.6674954,-0.0049 a 4.0091702,3.7904201 0.42280924 0 0 2.8210794,2.416217 z" />
    <path
       id="path3"
       style="fill:#d4d4d4;fill-opacity:1;stroke-width:0.447523"
       d="m 13.268712,11.400205 a 1.6914296,1.6914296 0 0 0 -1.69222,1.690993 1.6914296,1.6914296 0 0 0 1.69222,1.692221 1.6914296,1.6914296 0 0 0 1.690993,-1.692221 1.6914296,1.6914296 0 0 0 -1.690993,-1.690993 z m 0.03066,1.020237 a 0.64848373,0.64848373 0 0 1 0.648683,0.647459 0.64848373,0.64848373 0 0 1 -0.648683,0.648683 0.64848373,0.64848373 0 0 1 -0.648683,-0.648683 0.64848373,0.64848373 0 0 1 0.648683,-0.647459 z" />
    <path
       id="path3-2"
       style="fill:#d4d4d4;fill-opacity:1;stroke-width:0.2361"
       d="m 13.238533,12.226486 a 0.89234909,0.89234909 0 0 0 -0.892766,0.892119 0.89234909,0.89234909 0 0 0 0.892766,0.892766 0.89234909,0.89234909 0 0 0 0.892119,-0.892766 0.89234909,0.89234909 0 0 0 -0.892119,-0.892119 z m 0.01618,0.538247 a 0.34212117,0.34212117 0 0 1 0.342226,0.341581 0.34212117,0.34212117 0 0 1 -0.342226,0.342226 0.34212117,0.34212117 0 0 1 -0.342226,-0.342226 0.34212117,0.34212117 0 0 1 0.342226,-0.341581 z" />
  </g>
</svg>
