<?xml version="1.0" encoding="UTF-8" standalone="no"?>
<!-- Created with Inkscape (http://www.inkscape.org/) -->

<svg
   width="100"
   height="100"
   viewBox="0 0 26.458333 26.458333"
   version="1.1"
   id="svg1"
   inkscape:version="1.3.2 (091e20e, 2023-11-25, custom)"
   sodipodi:docname="vite.svg"
   xmlns:inkscape="http://www.inkscape.org/namespaces/inkscape"
   xmlns:sodipodi="http://sodipodi.sourceforge.net/DTD/sodipodi-0.dtd"
   xmlns="http://www.w3.org/2000/svg"
   xmlns:svg="http://www.w3.org/2000/svg">
  <sodipodi:namedview
     id="namedview1"
     pagecolor="#ffffff"
     bordercolor="#000000"
     borderopacity="0.25"
     inkscape:showpageshadow="2"
     inkscape:pageopacity="0.0"
     inkscape:pagecheckerboard="true"
     inkscape:deskcolor="#d1d1d1"
     inkscape:document-units="mm"
     showgrid="true"
     inkscape:zoom="5.7941076"
     inkscape:cx="55.487406"
     inkscape:cy="54.279282"
     inkscape:window-width="1920"
     inkscape:window-height="1009"
     inkscape:window-x="-8"
     inkscape:window-y="-8"
     inkscape:window-maximized="1"
     inkscape:current-layer="layer1">
    <inkscape:grid
       id="grid1"
       units="mm"
       originx="0"
       originy="0"
       spacingx="0.99999999"
       spacingy="0.99999999"
       empcolor="#0099e5"
       empopacity="0.30196078"
       color="#0099e5"
       opacity="0.14901961"
       empspacing="5"
       dotted="false"
       gridanglex="30"
       gridanglez="30"
       visible="true" />
  </sodipodi:namedview>
  <defs
     id="defs1">
    <inkscape:path-effect
       effect="fillet_chamfer"
       id="path-effect1"
       is_visible="true"
       lpeversion="1"
       nodesatellites_param="F,0,0,1,0,0,0,1 @ F,0,0,1,0,0,0,1 @ F,0,0,1,0,4.4999998,0,1 @ F,0,0,1,0,4.5000002,0,1"
       radius="0"
       unit="px"
       method="auto"
       mode="F"
       chamfer_steps="1"
       flexible="false"
       use_knot_distance="true"
       apply_no_radius="true"
       apply_with_radius="true"
       only_selected="false"
       hide_knots="false" />
  </defs>
  <g
     inkscape:label="Layer 1"
     inkscape:groupmode="layer"
     id="layer1">
    <rect
       style="fill:#d4d4d4;stroke-width:0.30796"
       id="rect1"
       width="16.295254"
       height="1.1639467"
       x="5.3654203"
       y="8.5944471"
       ry="0.58197337" />
    <rect
       style="fill:#d4d4d4;stroke-width:0.30796"
       id="rect1-5"
       width="16.295254"
       height="1.1639467"
       x="5.3654203"
       y="21.397863"
       ry="0.58197337" />
    <rect
       style="fill:#d4d4d4;stroke-width:0.342476"
       id="rect2"
       width="1.1707458"
       height="13.96736"
       x="5.3654203"
       y="8.5944471"
       ry="0.70244747" />
    <rect
       style="fill:#d4d4d4;stroke-width:0.342475"
       id="rect2-9"
       width="1.1707458"
       height="13.96736"
       x="20.489927"
       y="8.5944471"
       ry="0.70244747" />
    <path
       id="path2"
       style="fill:#d4d4d4;stroke-width:0.30796"
       d="M 13.513325,2.2979825 A 6.3983081,6.2963233 0 0 0 7.1147167,8.5943401 6.3983081,6.2963233 0 0 0 7.239225,9.7582141 h 1.0339544 a 5.3765925,5.4872724 0 0 1 -0.136544,-1.163874 5.3765925,5.4872724 0 0 1 5.3766816,-5.4873587 5.3765925,5.4872724 0 0 1 5.376085,5.4873587 5.3765925,5.4872724 0 0 1 -0.136544,1.163874 h 1.033955 a 6.3983081,6.2963233 0 0 0 0.12451,-1.163874 6.3983081,6.2963233 0 0 0 -6.39801,-6.2963576 z" />
    <path
       id="path2-6"
       style="fill:#d4d4d4;stroke-width:0.210888"
       d="m 14.543921,4.3938649 v 0.5712753 a 3.7563041,3.6831645 0 0 1 2.420959,2.0994576 h 0.744261 a 4.4701157,4.2262154 0 0 0 -3.16522,-2.6707329 z" />
    <circle
       style="fill:#d4d4d4;fill-opacity:1;stroke-width:0.30796"
       id="path3"
       cx="13.513046"
       cy="8.5944471"
       r="1.1639467" />
    <rect
       style="fill:#d4d4d4;fill-opacity:1;stroke-width:0.345488"
       id="rect3"
       width="6.9836802"
       height="0.9718647"
       x="10.021207"
       y="12.278371"
       ry="0.48593235" />
  </g>
</svg>
